<svg id="Group_1710" data-name="Group 1710" xmlns="http://www.w3.org/2000/svg" viewBox="0 0 305.196 68.539">
  <path id="Path_1220" data-name="Path 1220" d="M0,27.476v-8.5H7.39V6.6H17.92V18.978H28.635v8.5H17.92V47.244a8.546,8.546,0,0,0,1.108,4.619c.739,1.293,2.217,1.847,4.619,1.847a8.994,8.994,0,0,0,2.217-.185,10.415,10.415,0,0,0,2.217-.739l.369,8.313c-.924.369-2.032.554-3.325.924a27.765,27.765,0,0,1-3.695.369,17.6,17.6,0,0,1-6.836-1.108,10.681,10.681,0,0,1-4.249-3.325,14.3,14.3,0,0,1-2.217-4.8,28.683,28.683,0,0,1-.554-5.727V27.476Z" transform="translate(0 5.593)"/>
  <path id="Path_1221" data-name="Path 1221" d="M18.785,13.793H28.946v7.02h.185a15.846,15.846,0,0,1,4.988-6.1,12.892,12.892,0,0,1,7.39-2.217H42.8c.554,0,.924.185,1.293.185v9.976a8.13,8.13,0,0,0-1.847-.369H40.769a11.224,11.224,0,0,0-5.912,1.293,14.643,14.643,0,0,0-3.51,3.141,11.736,11.736,0,0,0-1.663,3.88,10.871,10.871,0,0,0-.369,3.141V56.469H18.6V13.793Z" transform="translate(15.762 10.593)"/>
  <path id="Path_1222" data-name="Path 1222" d="M62.374,51.027h-.185a11.585,11.585,0,0,1-5.173,4.619,16.5,16.5,0,0,1-8.129,1.847,18.689,18.689,0,0,1-5.358-.739,14.177,14.177,0,0,1-5.173-2.217,13.577,13.577,0,0,1-3.88-4.064A10.939,10.939,0,0,1,33,44.191a10.332,10.332,0,0,1,2.771-7.574,19.072,19.072,0,0,1,7.02-4.434,44.426,44.426,0,0,1,9.422-2.032A96.225,96.225,0,0,1,62.374,29.6V28.488a6.523,6.523,0,0,0-2.956-5.912,11.849,11.849,0,0,0-6.836-1.847,15.75,15.75,0,0,0-6.466,1.478,17.061,17.061,0,0,0-5.173,3.51L35.4,19.251a23.794,23.794,0,0,1,8.313-4.988A28.406,28.406,0,0,1,53.322,12.6a23.884,23.884,0,0,1,9.422,1.663,13.724,13.724,0,0,1,5.727,4.249,14.165,14.165,0,0,1,2.956,5.727A26.019,26.019,0,0,1,72.35,30.7V56.569H62.374V51.027Zm-.185-14.041h-2.4c-1.663,0-3.51,0-5.358.185a37.252,37.252,0,0,0-5.173.924,12.2,12.2,0,0,0-4.064,2.217,4.651,4.651,0,0,0-1.663,3.695,4.242,4.242,0,0,0,.739,2.586,4.768,4.768,0,0,0,1.663,1.663,9.281,9.281,0,0,0,2.4.924,13.087,13.087,0,0,0,2.586.185c3.695,0,6.466-.924,8.313-2.956A11.249,11.249,0,0,0,62,38.464V36.986Z" transform="translate(27.965 10.678)"/>
  <path id="Path_1223" data-name="Path 1223" d="M89.091,25.363A8.735,8.735,0,0,0,85.4,22.407,12.193,12.193,0,0,0,80.408,21.3a11.248,11.248,0,0,0-5.173,1.108,10.179,10.179,0,0,0-3.695,3.141,16.606,16.606,0,0,0-2.217,4.434,15.56,15.56,0,0,0-.739,4.988,15.56,15.56,0,0,0,.739,4.988,16.606,16.606,0,0,0,2.217,4.434,10.179,10.179,0,0,0,3.695,3.141,12.059,12.059,0,0,0,5.358,1.108,15.839,15.839,0,0,0,4.988-.924,13.16,13.16,0,0,0,4.064-2.771L96.3,51.6a19.9,19.9,0,0,1-6.835,4.434,23.553,23.553,0,0,1-8.868,1.478,27.893,27.893,0,0,1-8.868-1.478,20.265,20.265,0,0,1-7.39-4.434,24.18,24.18,0,0,1-4.988-7.02A22.009,22.009,0,0,1,57.5,35.154a21.17,21.17,0,0,1,1.847-9.237,19.428,19.428,0,0,1,4.988-7.02,18.169,18.169,0,0,1,7.205-4.434A23.653,23.653,0,0,1,80.408,12.8a22.063,22.063,0,0,1,9.052,1.847,17.613,17.613,0,0,1,7.02,4.8Z" transform="translate(48.728 10.847)"/>
  <path id="Path_1224" data-name="Path 1224" d="M122.545,35.693v2.956H90.215A15.978,15.978,0,0,0,91.324,42.9a12.1,12.1,0,0,0,2.771,3.325,13.29,13.29,0,0,0,3.88,2.217,12.419,12.419,0,0,0,4.434.739,14.164,14.164,0,0,0,6.651-1.478,11.746,11.746,0,0,0,4.434-4.064l7.02,5.727c-4.249,5.727-10.346,8.5-18.29,8.5a28.176,28.176,0,0,1-9.052-1.478,23.646,23.646,0,0,1-7.205-4.434,19.017,19.017,0,0,1-4.8-7.02A25.2,25.2,0,0,1,79.5,35.508a25.889,25.889,0,0,1,1.663-9.422,21.429,21.429,0,0,1,4.8-7.2,20.971,20.971,0,0,1,7.205-4.619,23.653,23.653,0,0,1,8.868-1.663,22.736,22.736,0,0,1,8.129,1.478,15.631,15.631,0,0,1,6.466,4.434,17.388,17.388,0,0,1,4.249,7.2C122.176,28.488,122.545,31.813,122.545,35.693Zm-10.53-4.8a14.063,14.063,0,0,0-.554-3.88,7.389,7.389,0,0,0-1.847-3.325,8.026,8.026,0,0,0-3.141-2.217,11.162,11.162,0,0,0-4.434-.924A11.62,11.62,0,0,0,93.91,23.5a10.269,10.269,0,0,0-3.695,7.39Z" transform="translate(67.371 10.678)"/>
  <path id="Path_1225" data-name="Path 1225" d="M106.585,13.793h10.161v7.02h.185a15.846,15.846,0,0,1,4.988-6.1,12.892,12.892,0,0,1,7.39-2.217H130.6c.554,0,.924.185,1.293.185v9.976a8.13,8.13,0,0,0-1.847-.369h-1.478a11.224,11.224,0,0,0-5.912,1.293,14.643,14.643,0,0,0-3.51,3.141,11.736,11.736,0,0,0-1.663,3.88,10.871,10.871,0,0,0-.369,3.141V56.469H106.4V13.793Z" transform="translate(90.167 10.593)"/>
  <path id="Path_1226" data-name="Path 1226" d="M120.8,34.954a21.732,21.732,0,0,1,1.847-9.237,19.428,19.428,0,0,1,4.988-7.02,17.625,17.625,0,0,1,7.39-4.434A25.148,25.148,0,0,1,160.52,18.7a24.18,24.18,0,0,1,4.988,7.02,21.17,21.17,0,0,1,1.847,9.237A22.431,22.431,0,0,1,160.52,51.4a20.113,20.113,0,0,1-7.39,4.619,25.474,25.474,0,0,1-18.1,0,21.761,21.761,0,0,1-7.39-4.619,25.082,25.082,0,0,1-4.988-7.2A21.731,21.731,0,0,1,120.8,34.954Zm18.474,0a6.565,6.565,0,0,0,.369,1.847,7.489,7.489,0,0,0,.924,1.663,2.873,2.873,0,0,0,1.478,1.108,3.654,3.654,0,0,0,2.032.369,6.641,6.641,0,0,0,2.032-.369,10.247,10.247,0,0,0,1.478-1.108,7.489,7.489,0,0,0,.924-1.663,6.564,6.564,0,0,0,.369-1.847,6.565,6.565,0,0,0-.369-1.847,7.489,7.489,0,0,0-.924-1.663,2.873,2.873,0,0,0-1.478-1.108,3.654,3.654,0,0,0-2.032-.369,6.642,6.642,0,0,0-2.032.369,10.247,10.247,0,0,0-1.478,1.108,7.488,7.488,0,0,0-.924,1.663A6.564,6.564,0,0,0,139.274,34.954Z" transform="translate(102.37 10.678)"/>
  <path id="Path_1227" data-name="Path 1227" d="M149.5,0h10.715V67.062H149.5Z" transform="translate(126.692)"/>
  <path id="Path_1228" data-name="Path 1228" d="M159.4,0h10.715V67.062H159.4Z" transform="translate(135.081)"/>
</svg>
