<svg xmlns="http://www.w3.org/2000/svg" viewBox="0 0 204.693 72.698">
  <defs>
    <style>
      .cls-1, .cls-2 {
        fill: #fff;
      }

      .cls-1 {
        font-size: 16px;
        font-family: HelveticaNeue, Helvetica Neue;
      }
    </style>
  </defs>
  <g id="Group_1729" data-name="Group 1729" transform="translate(-114 -9996.564)">
    <text id="_2018" data-name="© 2018" class="cls-1" transform="translate(114.038 10066.263)"><tspan x="0" y="0">© 2018</tspan></text>
    <g id="Group_1711" data-name="Group 1711" transform="translate(114 9996.564)">
      <path id="Path_1220" data-name="Path 1220" class="cls-2" d="M0,20.6V14.9H4.956V6.6h7.063v8.3h7.187v5.7H12.019V33.859a5.732,5.732,0,0,0,.743,3.1c.5.867,1.487,1.239,3.1,1.239a6.032,6.032,0,0,0,1.487-.124,6.985,6.985,0,0,0,1.487-.5l.248,5.576c-.62.248-1.363.372-2.23.62a18.623,18.623,0,0,1-2.478.248,11.806,11.806,0,0,1-4.585-.743,7.164,7.164,0,0,1-2.85-2.23,9.589,9.589,0,0,1-1.487-3.222,19.238,19.238,0,0,1-.372-3.841V20.6Z" transform="translate(0 1.578)"/>
      <path id="Path_1221" data-name="Path 1221" class="cls-2" d="M18.724,13.367h6.815v4.708h.124a10.628,10.628,0,0,1,3.345-4.089A8.647,8.647,0,0,1,33.964,12.5h.867c.372,0,.62.124.867.124v6.691a5.453,5.453,0,0,0-1.239-.248h-.991a7.528,7.528,0,0,0-3.965.867,9.821,9.821,0,0,0-2.354,2.106,7.871,7.871,0,0,0-1.115,2.6,7.291,7.291,0,0,0-.248,2.106V41.99H18.6V13.367Z" transform="translate(4.447 2.988)"/>
      <path id="Path_1222" data-name="Path 1222" class="cls-2" d="M52.7,38.373h-.124a7.77,7.77,0,0,1-3.469,3.1,11.066,11.066,0,0,1-5.452,1.239,12.534,12.534,0,0,1-3.593-.5,9.508,9.508,0,0,1-3.469-1.487A9.106,9.106,0,0,1,33.991,38,7.337,7.337,0,0,1,33,33.788a6.93,6.93,0,0,1,1.859-5.08,12.791,12.791,0,0,1,4.708-2.974,29.8,29.8,0,0,1,6.319-1.363A64.538,64.538,0,0,1,52.7,24v-.743a4.375,4.375,0,0,0-1.982-3.965,7.947,7.947,0,0,0-4.585-1.239,10.563,10.563,0,0,0-4.337.991A11.442,11.442,0,0,0,38.328,21.4l-3.717-4.337a15.959,15.959,0,0,1,5.576-3.345A19.052,19.052,0,0,1,46.63,12.6a16.019,16.019,0,0,1,6.319,1.115,9.2,9.2,0,0,1,3.841,2.85,9.5,9.5,0,0,1,1.982,3.841,17.451,17.451,0,0,1,.62,4.337V42.09H52.7V38.373Zm-.124-9.417H50.966c-1.115,0-2.354,0-3.593.124a24.985,24.985,0,0,0-3.469.62,8.179,8.179,0,0,0-2.726,1.487,3.119,3.119,0,0,0-1.115,2.478,2.845,2.845,0,0,0,.5,1.735,3.2,3.2,0,0,0,1.115,1.115,6.225,6.225,0,0,0,1.611.62,8.778,8.778,0,0,0,1.735.124c2.478,0,4.337-.62,5.576-1.983a7.545,7.545,0,0,0,1.859-5.328v-.991Z" transform="translate(7.889 3.012)"/>
      <path id="Path_1223" data-name="Path 1223" class="cls-2" d="M78.688,21.226a5.858,5.858,0,0,0-2.478-1.983,8.178,8.178,0,0,0-3.345-.743,7.544,7.544,0,0,0-3.469.743,6.827,6.827,0,0,0-2.478,2.106,11.138,11.138,0,0,0-1.487,2.974,10.436,10.436,0,0,0-.5,3.345,10.436,10.436,0,0,0,.5,3.345,11.138,11.138,0,0,0,1.487,2.974A6.827,6.827,0,0,0,69.4,36.094a8.088,8.088,0,0,0,3.593.743,10.623,10.623,0,0,0,3.345-.62A8.826,8.826,0,0,0,79.06,34.36L83.52,38.82a13.345,13.345,0,0,1-4.585,2.974,15.8,15.8,0,0,1-5.948.991,18.708,18.708,0,0,1-5.948-.991,13.592,13.592,0,0,1-4.956-2.974,16.217,16.217,0,0,1-3.345-4.708A14.762,14.762,0,0,1,57.5,27.793a14.2,14.2,0,0,1,1.239-6.2,13.031,13.031,0,0,1,3.345-4.708,12.186,12.186,0,0,1,4.832-2.974A15.864,15.864,0,0,1,72.864,12.8a14.8,14.8,0,0,1,6.071,1.239,11.813,11.813,0,0,1,4.708,3.222Z" transform="translate(13.746 3.06)"/>
      <path id="Path_1224" data-name="Path 1224" class="cls-2" d="M108.37,28.088v1.983H86.687a10.716,10.716,0,0,0,.743,2.85,8.115,8.115,0,0,0,1.859,2.23,8.913,8.913,0,0,0,2.6,1.487,8.33,8.33,0,0,0,2.974.5,9.5,9.5,0,0,0,4.461-.991,7.878,7.878,0,0,0,2.974-2.726l4.708,3.841c-2.85,3.841-6.939,5.7-12.267,5.7a18.9,18.9,0,0,1-6.071-.991,15.859,15.859,0,0,1-4.832-2.974,12.755,12.755,0,0,1-3.222-4.708A16.9,16.9,0,0,1,79.5,27.964a17.364,17.364,0,0,1,1.115-6.319,14.372,14.372,0,0,1,3.222-4.832,14.065,14.065,0,0,1,4.832-3.1A15.864,15.864,0,0,1,94.617,12.6a15.249,15.249,0,0,1,5.452.991,10.484,10.484,0,0,1,4.337,2.974,11.662,11.662,0,0,1,2.85,4.832A15.8,15.8,0,0,1,108.37,28.088Zm-7.063-3.222a9.432,9.432,0,0,0-.372-2.6,4.956,4.956,0,0,0-1.239-2.23,5.383,5.383,0,0,0-2.106-1.487,7.487,7.487,0,0,0-2.974-.62,7.794,7.794,0,0,0-5.452,1.983,6.887,6.887,0,0,0-2.478,4.956Z" transform="translate(19.006 3.012)"/>
      <path id="Path_1225" data-name="Path 1225" class="cls-2" d="M106.524,13.367h6.815v4.708h.124a10.628,10.628,0,0,1,3.345-4.089,8.647,8.647,0,0,1,4.956-1.487h.867c.372,0,.62.124.867.124v6.691a5.453,5.453,0,0,0-1.239-.248h-.991a7.528,7.528,0,0,0-3.965.867,9.821,9.821,0,0,0-2.354,2.106,7.871,7.871,0,0,0-1.115,2.6,7.291,7.291,0,0,0-.248,2.106V41.99H106.4V13.367Z" transform="translate(25.436 2.988)"/>
      <path id="Path_1226" data-name="Path 1226" class="cls-2" d="M120.8,27.593a14.575,14.575,0,0,1,1.239-6.2,13.031,13.031,0,0,1,3.345-4.708,11.821,11.821,0,0,1,4.956-2.974,16.867,16.867,0,0,1,17.1,2.974,16.217,16.217,0,0,1,3.345,4.708,14.2,14.2,0,0,1,1.239,6.2A15.044,15.044,0,0,1,147.44,38.62a13.49,13.49,0,0,1-4.956,3.1,17.085,17.085,0,0,1-12.143,0,14.6,14.6,0,0,1-4.956-3.1,16.822,16.822,0,0,1-3.345-4.832A14.575,14.575,0,0,1,120.8,27.593Zm12.391,0a4.4,4.4,0,0,0,.248,1.239,5.022,5.022,0,0,0,.62,1.115,1.927,1.927,0,0,0,.991.743,2.451,2.451,0,0,0,1.363.248,4.454,4.454,0,0,0,1.363-.248,6.872,6.872,0,0,0,.991-.743,5.023,5.023,0,0,0,.62-1.115,4.4,4.4,0,0,0,.248-1.239,4.4,4.4,0,0,0-.248-1.239,5.023,5.023,0,0,0-.62-1.115,1.927,1.927,0,0,0-.991-.743,2.451,2.451,0,0,0-1.363-.248,4.455,4.455,0,0,0-1.363.248,6.873,6.873,0,0,0-.991.743,5.023,5.023,0,0,0-.62,1.115A4.4,4.4,0,0,0,133.191,27.593Z" transform="translate(28.879 3.012)"/>
      <path id="Path_1227" data-name="Path 1227" class="cls-2" d="M149.5,0h7.187V44.978H149.5Z" transform="translate(35.74)"/>
      <path id="Path_1228" data-name="Path 1228" class="cls-2" d="M159.4,0h7.187V44.978H159.4Z" transform="translate(38.107)"/>
    </g>
  </g>
</svg>
